{"title":"The.Signal(2014)1080p.BluRay.H264.AAC.Raven","uid":11188823,"size":1535540146,"categoryP":"video","categoryS":"hd___movies","magnet":"?xt=urn:btih:c746d2ea3f30655055cd340800dbc4e1133db694&amp;dn=The.Signal%282014%291080p.BluRay.H264.AAC.Raven&amp;tr=udp%3A%2F%2Ftracker.openbittorrent.com%3A80&amp;tr=udp%3A%2F%2Fopen.demonii.com%3A1337&amp;tr=udp%3A%2F%2Ftracker.coppersurfer.tk%3A6969&amp;tr=udp%3A%2F%2Fexodus.desync.com%3A6969","seeders":1,"leechers":0,"uploader":"Raven1969","files":-1,"time":1412964153,"description":"The.Signal(2014)1080p.BluRay.H264.AAC.Raven.\n\n\n\n\nEnglish, French, Spanish, Italian, Malaysian, Romanian and Czech subs included.  \n\n\n\n\n\nRuntime:\n97 Mins\n\n\n\nScreen images:\n\n\n &lt;a href=&quot;\nhttp://i.imgur.com/FBBGD5b.png&quot; rel=&quot;nofollow&quot; target=&quot;_NEW&quot;&gt;\nhttp://i.imgur.com/FBBGD5b.png&lt;/a&gt;\n\n\n &lt;a href=&quot;\nhttp://i.imgur.com/Fpq0Wfz.png&quot; rel=&quot;nofollow&quot; target=&quot;_NEW&quot;&gt;\nhttp://i.imgur.com/Fpq0Wfz.png&lt;/a&gt;\n\n\n &lt;a href=&quot;\nhttp://i.imgur.com/Jdm7ozP.png&quot; rel=&quot;nofollow&quot; target=&quot;_NEW&quot;&gt;\nhttp://i.imgur.com/Jdm7ozP.png&lt;/a&gt;\n\n\n &lt;a href=&quot;\nhttp://i.imgur.com/Mzp7JDn.png&quot; rel=&quot;nofollow&quot; target=&quot;_NEW&quot;&gt;\nhttp://i.imgur.com/Mzp7JDn.png&lt;/a&gt;\n\n\n &lt;a href=&quot;\nhttp://i.imgur.com/hL5gI31.png&quot; rel=&quot;nofollow&quot; target=&quot;_NEW&quot;&gt;\nhttp://i.imgur.com/hL5gI31.png&lt;/a&gt;\n\n\n &lt;a href=&quot;\nhttp://i.imgur.com/YdxOAwF.png&quot; rel=&quot;nofollow&quot; target=&quot;_NEW&quot;&gt;\nhttp://i.imgur.com/YdxOAwF.png&lt;/a&gt;\n\n\n &lt;a href=&quot;\nhttp://i.imgur.com/jDhzYV1.png&quot; rel=&quot;nofollow&quot; target=&quot;_NEW&quot;&gt;\nhttp://i.imgur.com/jDhzYV1.png&lt;/a&gt;\n\n\n\n\nIMDB:\n\n\n\n &lt;a href=&quot;\nhttp://www.imdb.com/title/tt2910814&quot; rel=&quot;nofollow&quot; target=&quot;_NEW&quot;&gt;\nhttp://www.imdb.com/title/tt2910814&lt;/a&gt;\n\n\n\n\nIMDB Rating:  6.3\n\n\n\n\nStoryline:\n\nOn a road trip, Nic and two friends are drawn to an isolated area by a computer genius. When everything suddenly goes dark, Nic regains consciousness - only to find himself in a waking nightmare.\n\n\n\n\nGeneral\nFormat                                   : MPEG-4\nFormat profile                           : Base Media\nCodec ID                                 : isom\nFile size                                : 1.42 GiB\nDuration                                 : 1h 37mn\nOverall bit rate mode                    : Variable\nOverall bit rate                         : 2 096 Kbps\nEncoded date                             : UTC 2014-10-10 15:38:45\nTagged date                              : UTC 2014-10-10 15:38:45\nWriting application                      : My MP4Box GUI 0.6.0.6 &lt;http://my-mp4box-gui.zymichost.com&gt;\n\nVideo\nID                                       : 1\nFormat                                   : AVC\nFormat/Info                              : Advanced Video Codec\nFormat profile                           : &lt;a class=&quot;__cf_email__&quot; href=&quot;/cdn-cgi/l/email-protection&quot; data-cfemail=&quot;da92b3bdb29a96eef4ea&quot;&gt;[email&amp;#160;protected]&lt;/a&gt;&lt;script cf-hash='f9e31' type=&quot;text/javascript&quot;&gt;\n/* &lt;![CDATA[ */!function(){try{var t=&quot;currentScript&quot;in document?document.currentScript:function(){for(var t=document.getElementsByTagName(&quot;script&quot;),e=t.length;e--;)if(t[e].getAttribute(&quot;cf-hash&quot;))return t[e]}();if(t&amp;&amp;t.previousSibling){var e,r,n,i,c=t.previousSibling,a=c.getAttribute(&quot;data-cfemail&quot;);if(a){for(e=&quot;&quot;,r=parseInt(a.substr(0,2),16),n=2;a.length-n;n+=2)i=parseInt(a.substr(n,2),16)^r,e+=String.fromCharCode(i);e=document.createTextNode(e),c.parentNode.replaceChild(e,c)}}}catch(u){}}();/* ]]&gt; */&lt;/script&gt;\nFormat settings, CABAC                   : Yes\nFormat settings, ReFrames                : 5 frames\nCodec ID                                 : avc1\nCodec ID/Info                            : Advanced Video Coding\nDuration                                 : 1h 37mn\nBit rate                                 : 2 000 Kbps\nMaximum bit rate                         : 17.0 Mbps\nWidth                                    : 1 920 pixels\nHeight                                   : 800 pixels\nDisplay aspect ratio                     : 2.40:1\nFrame rate mode                          : Constant\nFrame rate                               : 23.976 fps\nColor space                              : YUV\nChroma subsampling                       : 4:2:0\nBit depth                                : 8 bits\nScan type                                : Progressive\nBits/(Pixel*Frame)                       : 0.054\nStream size                              : 1.36 GiB (95%)\nTitle                                    : The.Signal(2014)1080p.BluRay.H264.AAC.Raven.mp4\nWriting library                          : x264 core 142 \nLanguage                                 : English\nEncoded date                             : UTC 2014-10-10 15:31:55\nTagged date                              : UTC 2014-10-10 15:39:02\n\nAudio\nID                                       : 2\nFormat                                   : AAC\nFormat/Info                              : Advanced Audio Codec\nFormat profile                           : LC\nCodec ID                                 : 40\nDuration                                 : 1h 37mn\nBit rate mode                            : Variable\nBit rate                                 : 93.4 Kbps\nMaximum bit rate                         : 99.6 Kbps\nChannel(s)                               : 2 channels\nChannel positions                        : Front: L R\nSampling rate                            : 48.0 KHz\nCompression mode                         : Lossy\nStream size                              : 64.9 MiB (4%)\nTitle                                    : Audio AAC LC 96kb.aac\nEncoded date                             : UTC 2014-10-10 15:38:58\nTagged date                              : UTC 2014-10-10 15:39:02\n\n\n\n\n\nPLEASE  SEED FOR AS LONG AS POSSIBLE TO KEEP THE TORRENT ALIVE :-)\n","torrent":{"xt":"urn:btih:c746d2ea3f30655055cd340800dbc4e1133db694","amp;dn":"The.Signal%282014%291080p.BluRay.H264.AAC.Raven","amp;tr":["udp%3A%2F%2Ftracker.openbittorrent.com%3A80","udp%3A%2F%2Fopen.demonii.com%3A1337","udp%3A%2F%2Ftracker.coppersurfer.tk%3A6969","udp%3A%2F%2Fexodus.desync.com%3A6969"],"infoHash":"c746d2ea3f30655055cd340800dbc4e1133db694","infoHashBuffer":{"type":"Buffer","data":[199,70,210,234,63,48,101,80,85,205,52,8,0,219,196,225,19,61,182,148]},"announce":[],"urlList":[]}}